<?xml version="1.0" encoding="utf-8"?>
<!-- Generator: Adobe Illustrator 23.1.0, SVG Export Plug-In . SVG Version: 6.00 Build 0)  -->
<svg version="1.1" id="Layer_1" xmlns="http://www.w3.org/2000/svg" xmlns:xlink="http://www.w3.org/1999/xlink" x="0px" y="0px"
	 viewBox="0 0 72 72" enable-background="new 0 0 72 72" xml:space="preserve">
<g>
	<path fill="#999999" d="M69.63,59.52c0,4.4-3.6,8-8,8H14.59c-4.4,0-8-3.6-8-8V12.48c0-4.4,3.6-8,8-8h47.04c4.4,0,8,3.6,8,8V59.52z"
		/>
	<path fill="none" stroke="#000000" stroke-miterlimit="10" d="M69.63,59.52c0,4.4-3.6,8-8,8H14.59c-4.4,0-8-3.6-8-8V12.48
		c0-4.4,3.6-8,8-8h47.04c4.4,0,8,3.6,8,8V59.52z"/>
</g>
<g>
	<g>
		<rect x="9.48" y="20.82" fill="none" width="76.09" height="55.96"/>
		<text transform="matrix(1 0 0 1 9.4791 50.836)" fill="#B3B3B3" font-family="'Broadway'" font-size="45px">SC</text>
	</g>
	<g>
		<rect x="9.38" y="20.72" fill="none" width="76.09" height="55.96"/>
		<text transform="matrix(1 0 0 1 9.3791 50.736)" fill="#B3B3B3" font-family="'Broadway'" font-size="45px">SC</text>
	</g>
	<g>
		<rect x="9.28" y="20.62" fill="none" width="76.09" height="55.96"/>
		<text transform="matrix(1 0 0 1 9.2791 50.636)" fill="#B3B3B3" font-family="'Broadway'" font-size="45px">SC</text>
	</g>
	<g>
		<rect x="9.18" y="20.52" fill="none" width="76.09" height="55.96"/>
		<text transform="matrix(1 0 0 1 9.1791 50.536)" fill="#B3B3B3" font-family="'Broadway'" font-size="45px">SC</text>
	</g>
	<g>
		<rect x="9.08" y="20.42" fill="none" width="76.09" height="55.96"/>
		<text transform="matrix(1 0 0 1 9.0791 50.436)" fill="#B3B3B3" font-family="'Broadway'" font-size="45px">SC</text>
	</g>
	<g>
		<rect x="8.98" y="20.32" fill="none" width="76.09" height="55.96"/>
		<text transform="matrix(1 0 0 1 8.9791 50.336)" fill="#B3B3B3" font-family="'Broadway'" font-size="45px">SC</text>
	</g>
	<g>
		<rect x="8.88" y="20.22" fill="none" width="76.09" height="55.96"/>
		<text transform="matrix(1 0 0 1 8.8791 50.236)" fill="#B3B3B3" font-family="'Broadway'" font-size="45px">SC</text>
	</g>
	<g>
		<rect x="8.78" y="20.12" fill="none" width="76.09" height="55.96"/>
		<text transform="matrix(1 0 0 1 8.7791 50.136)" fill="#B3B3B3" font-family="'Broadway'" font-size="45px">SC</text>
	</g>
	<g>
		<rect x="8.68" y="20.02" fill="none" width="76.09" height="55.96"/>
		<text transform="matrix(1 0 0 1 8.6791 50.036)" fill="#B3B3B3" font-family="'Broadway'" font-size="45px">SC</text>
	</g>
	<g>
		<rect x="8.58" y="19.92" fill="none" width="76.09" height="55.96"/>
		<text transform="matrix(1 0 0 1 8.5791 49.936)" fill="#B3B3B3" font-family="'Broadway'" font-size="45px">SC</text>
	</g>
	<g>
		<rect x="8.48" y="19.82" fill="none" width="76.09" height="55.96"/>
		<text transform="matrix(1 0 0 1 8.4791 49.836)" fill="#B3B3B3" font-family="'Broadway'" font-size="45px">SC</text>
	</g>
	<g>
		<rect x="8.38" y="19.72" fill="none" width="76.09" height="55.96"/>
		<text transform="matrix(1 0 0 1 8.3791 49.736)" fill="#B3B3B3" font-family="'Broadway'" font-size="45px">SC</text>
	</g>
	<g>
		<rect x="8.28" y="19.62" fill="none" width="76.09" height="55.96"/>
		<text transform="matrix(1 0 0 1 8.2791 49.636)" fill="#B3B3B3" font-family="'Broadway'" font-size="45px">SC</text>
	</g>
	<g>
		<rect x="8.18" y="19.52" fill="none" width="76.09" height="55.96"/>
		<text transform="matrix(1 0 0 1 8.1791 49.536)" fill="#B3B3B3" font-family="'Broadway'" font-size="45px">SC</text>
	</g>
	<g>
		<rect x="8.08" y="19.42" fill="none" width="76.09" height="55.96"/>
		<text transform="matrix(1 0 0 1 8.0791 49.436)" fill="#B3B3B3" font-family="'Broadway'" font-size="45px">SC</text>
	</g>
	<g>
		<rect x="7.98" y="19.32" fill="none" width="76.09" height="55.96"/>
		<text transform="matrix(1 0 0 1 7.9791 49.336)" fill="#B3B3B3" font-family="'Broadway'" font-size="45px">SC</text>
	</g>
	<g>
		<rect x="7.88" y="19.22" fill="none" width="76.09" height="55.96"/>
		<text transform="matrix(1 0 0 1 7.8791 49.236)" fill="#B3B3B3" font-family="'Broadway'" font-size="45px">SC</text>
	</g>
	<g>
		<rect x="7.78" y="19.12" fill="none" width="76.09" height="55.96"/>
		<text transform="matrix(1 0 0 1 7.7791 49.136)" fill="#B3B3B3" font-family="'Broadway'" font-size="45px">SC</text>
	</g>
	<g>
		<rect x="7.68" y="19.02" fill="none" width="76.09" height="55.96"/>
		<text transform="matrix(1 0 0 1 7.6791 49.036)" fill="#B3B3B3" font-family="'Broadway'" font-size="45px">SC</text>
	</g>
	<g>
		<rect x="7.58" y="18.92" fill="none" width="76.09" height="55.96"/>
		<text transform="matrix(1 0 0 1 7.5791 48.936)" fill="#B3B3B3" font-family="'Broadway'" font-size="45px">SC</text>
	</g>
	<g>
		<rect x="7.48" y="18.82" fill="none" width="76.09" height="55.96"/>
		<text transform="matrix(1 0 0 1 7.4791 48.836)" fill="#B3B3B3" font-family="'Broadway'" font-size="45px">SC</text>
	</g>
</g>
<rect x="7.48" y="18.82" fill="none" width="76.09" height="55.96"/>
<text transform="matrix(1 0 0 1 7.4791 48.836)" fill="#F15A24" stroke="#000000" stroke-miterlimit="10" font-family="'Broadway'" font-size="45px">SC</text>
</svg>
