<?xml version="1.0" encoding="utf-8"?>
<!-- Generator: Adobe Illustrator 23.1.0, SVG Export Plug-In . SVG Version: 6.00 Build 0)  -->
<svg version="1.1" id="Layer_1" xmlns="http://www.w3.org/2000/svg" xmlns:xlink="http://www.w3.org/1999/xlink" x="0px" y="0px"
	 viewBox="0 0 72 72" style="enable-background:new 0 0 72 72;" xml:space="preserve">
<style type="text/css">
	.st0{fill:#004B62;}
	.st1{fill:none;}
	.st2{enable-background:new    ;}
	.st3{fill:#B3B3B3;}
	.st4{fill:#D94E41;}
</style>
<g>
	<g>
		<path class="st0" d="M68.3,59.6c0,4.4-3.6,8-8,8h-47c-4.4,0-8-3.6-8-8v-47c0-4.4,3.6-8,8-8h47c4.4,0,8,3.6,8,8
			C68.3,12.6,68.3,59.6,68.3,59.6z"/>
	</g>
	<g>
		<path class="st0" d="M60.3,68.1h-47c-4.7,0-8.5-3.8-8.5-8.5v-47c0-4.7,3.8-8.5,8.5-8.5h47c4.7,0,8.5,3.8,8.5,8.5v47
			C68.8,64.3,65,68.1,60.3,68.1z M13.3,5.1c-4.1,0-7.5,3.4-7.5,7.5v47c0,4.1,3.4,7.5,7.5,7.5h47c4.1,0,7.5-3.4,7.5-7.5v-47
			c0-4.1-3.4-7.5-7.5-7.5C60.3,5.1,13.3,5.1,13.3,5.1z"/>
	</g>
</g>
<g>
	<g>
		<g>
			<rect x="8.2" y="22.3" class="st1" width="76.1" height="56"/>
		</g>
		<g class="st2">
			<path class="st3" d="M10.5,47.2c0.3,0,0.6,0.2,0.9,0.6c1.1,1.2,2.4,2.2,4,2.9s3.2,1.1,4.7,1.1c1.7,0,2.6-0.5,2.6-1.6
				c0-0.7-0.3-1.4-0.9-2.2s-2-2.5-4.3-4.9c-2.9-3.1-4.8-5.4-5.7-6.9c-1.3-2-1.9-3.9-1.9-5.6c0-2.7,1.2-4.9,3.6-6.6s5.3-2.5,8.7-2.5
				c2.4,0,4.6,0.5,6.7,1.5c0.8,0.4,1.4,0.8,2,1.3c0.5,0.5,0.8,0.9,0.8,1.3c0,0.2-0.1,0.3-0.2,0.5c-0.2,0.1-0.3,0.2-0.5,0.2
				s-0.6-0.2-1.1-0.7c-0.8-0.7-1.8-1.4-3.1-1.9c-1.3-0.5-2.5-0.7-3.7-0.7c-0.7,0-1.3,0.2-1.8,0.5s-0.7,0.7-0.7,1.2
				c0,0.6,0.3,1.3,0.9,2.2s1.5,2,2.9,3.4c4.3,4.6,6.9,7.7,7.9,9.3c1,1.7,1.5,3.3,1.5,4.9c0,1.3-0.4,2.6-1.1,3.8
				c-0.7,1.2-1.7,2.2-3,2.9c-2.4,1.5-5.4,2.2-8.9,2.2c-3.2,0-6.1-0.8-8.5-2.5c-1.7-1.2-2.6-2.1-2.6-2.7c0-0.2,0.1-0.4,0.2-0.5
				C10.1,47.3,10.3,47.2,10.5,47.2z"/>
			<path class="st3" d="M50.5,22.9l-0.1,15.6l0.1,13.2c0.8,0.1,1.4,0.2,1.9,0.2c1.4,0,2.9-0.3,4.4-0.8s2.8-1.2,4-2.1
				c0.7-0.6,1.5-1.3,2.3-2.3s1.4-1.9,1.9-2.8c0.3-0.5,0.6-0.8,0.9-0.8c0.5,0,0.7,0.2,0.7,0.6c0,0.4-0.4,1.2-1.1,2.2s-1.5,2-2.4,2.8
				c-1.9,1.8-4.1,3.1-6.6,3.8c-1.5,0.4-3,0.6-4.4,0.6c-2.1,0-4.1-0.4-6.2-1.3c-3.3-1.4-5.8-3.6-7.6-6.6c-1.4-2.5-2.2-5.2-2.2-8
				c0-2.9,0.7-5.6,2.2-8.1c1.6-2.7,3.9-4.8,6.8-6.2c2.1-1,4.4-1.5,6.9-1.5c4.2,0,7.9,1.4,10.9,4.3c1.5,1.4,2.2,2.3,2.2,2.9
				c0,0.2-0.1,0.3-0.2,0.4s-0.3,0.2-0.5,0.2c-0.3,0-0.6-0.3-1.1-0.9c-1.3-1.7-2.9-3.1-5-4.1s-4.2-1.5-6.5-1.5
				C51.5,22.7,51,22.8,50.5,22.9z"/>
		</g>
	</g>
	<g>
		<g>
			<rect x="8.1" y="22.2" class="st1" width="76.1" height="56"/>
		</g>
		<g class="st2">
			<path class="st3" d="M10.4,47.1c0.3,0,0.6,0.2,0.9,0.6c1.1,1.2,2.4,2.2,4,2.9s3.2,1.1,4.7,1.1c1.7,0,2.6-0.5,2.6-1.6
				c0-0.7-0.3-1.4-0.9-2.2s-2-2.5-4.3-4.9c-2.9-3.1-4.8-5.4-5.7-6.9c-1.3-2-1.9-3.9-1.9-5.6c0-2.7,1.2-4.9,3.6-6.6s5.3-2.5,8.7-2.5
				c2.4,0,4.6,0.5,6.7,1.5c0.8,0.4,1.4,0.8,2,1.3c0.5,0.5,0.8,0.9,0.8,1.3c0,0.2-0.1,0.3-0.2,0.5c-0.2-0.1-0.4,0-0.5,0
				c-0.2,0-0.6-0.2-1.1-0.7c-0.8-0.7-1.8-1.4-3.1-1.9c-1.3-0.5-2.5-0.7-3.7-0.7c-0.7,0-1.3,0.2-1.8,0.5s-0.7,0.7-0.7,1.2
				c0,0.6,0.3,1.3,0.9,2.2s1.5,2,2.9,3.4c4.3,4.6,6.9,7.7,7.9,9.3c1,1.7,1.5,3.3,1.5,4.9c0,1.3-0.4,2.6-1.1,3.8
				c-0.7,1.2-1.7,2.2-3,2.9c-2.4,1.5-5.4,2.2-8.9,2.2c-3.2,0-6.1-0.8-8.5-2.5c-1.7-1.2-2.6-2.1-2.6-2.7c0-0.2,0.1-0.4,0.2-0.5
				C10,47.2,10.2,47.1,10.4,47.1z"/>
			<path class="st3" d="M50.4,22.8l-0.1,15.6l0.1,13.2c0.8,0.1,1.4,0.2,1.9,0.2c1.4,0,2.9-0.3,4.4-0.8s2.8-1.2,4-2.1
				c0.7-0.6,1.5-1.3,2.3-2.3s1.4-1.9,1.9-2.8c0.3-0.5,0.6-0.8,0.9-0.8c0.5,0,0.7,0.2,0.7,0.6c0,0.4-0.4,1.2-1.1,2.2s-1.5,2-2.4,2.8
				c-1.9,1.8-4.1,3.1-6.6,3.8c-1.5,0.4-3,0.6-4.4,0.6c-2.1,0-4.1-0.4-6.2-1.3c-3.3-1.4-5.8-3.6-7.6-6.6c-1.4-2.5-2.2-5.2-2.2-8
				c0-2.9,0.7-5.6,2.2-8.1c1.6-2.7,3.9-4.8,6.8-6.2c2.1-1,4.4-1.5,6.9-1.5c4.2,0,7.9,1.4,10.9,4.3c1.5,1.4,2.2,2.3,2.2,2.9
				c0,0.2-0.1,0.3-0.2,0.4s-0.3,0.2-0.5,0.2c-0.3,0-0.6-0.3-1.1-0.9c-1.3-1.7-2.9-3.1-5-4.1s-4.2-1.5-6.5-1.5
				C51.4,22.6,50.9,22.7,50.4,22.8z"/>
		</g>
	</g>
	<g>
		<g>
			<rect x="8" y="22.1" class="st1" width="76.1" height="56"/>
		</g>
		<g class="st2">
			<path class="st3" d="M10.3,47c0.3,0,0.6,0.2,0.9,0.6c1.1,1.2,2.4,2.2,4,2.9s3.2,1.1,4.7,1.1c1.7,0,2.6-0.5,2.6-1.6
				c0-0.7-0.3-1.4-0.9-2.2s-2-2.5-4.3-4.9c-2.9-3.1-4.8-5.4-5.7-6.9c-1.3-2-1.9-3.9-1.9-5.6c0-2.7,1.2-4.9,3.6-6.6s5.3-2.5,8.7-2.5
				c2.4,0,4.6,0.5,6.7,1.5c0.8,0.4,1.4,0.8,2,1.3c0.5,0.5,0.8,0.9,0.8,1.3c0,0.2-0.1,0.3-0.2,0.5c-0.2,0.1-0.3,0.2-0.5,0.2
				s-0.6-0.2-1.1-0.7c-0.8-0.7-1.8-1.4-3.1-1.9c-1.3-0.5-2.5-0.7-3.7-0.7c-0.7,0-1.3,0.2-1.8,0.5s-0.7,0.7-0.7,1.2
				c0,0.6,0.3,1.3,0.9,2.2s1.5,2,2.9,3.4c4.3,4.6,6.9,7.7,7.9,9.3c1,1.7,1.5,3.3,1.5,4.9c0,1.3-0.4,2.6-1.1,3.8
				c-0.7,1.2-1.7,2.2-3,2.9c-2.4,1.5-5.4,2.2-8.9,2.2c-3.2,0-6.1-0.8-8.5-2.5c-1.7-1.2-2.6-2.1-2.6-2.7c0-0.2,0.1-0.4,0.2-0.5
				C9.9,47.1,10.1,47,10.3,47z"/>
			<path class="st3" d="M50.3,22.7l-0.1,15.6l0.1,13.2c0.8,0.1,1.4,0.2,1.9,0.2c1.4,0,2.9-0.3,4.4-0.8s2.8-1.2,4-2.1
				c0.7-0.6,1.5-1.3,2.3-2.3s1.4-1.9,1.9-2.8c0.3-0.5,0.6-0.8,0.9-0.8c0.5,0,0.7,0.2,0.7,0.6c0,0.4-0.4,1.2-1.1,2.2s-1.5,2-2.4,2.8
				c-1.9,1.8-4.1,3.1-6.6,3.8c-1.5,0.4-3,0.6-4.4,0.6c-2.1,0-4.1-0.4-6.2-1.3c-3.3-1.4-5.8-3.6-7.6-6.6c-1.4-2.5-2.2-5.2-2.2-8
				c0-2.9,0.7-5.6,2.2-8.1c1.6-2.7,3.9-4.8,6.8-6.2c2.1-1,4.4-1.5,6.9-1.5c4.2,0,7.9,1.4,10.9,4.3c1.5,1.4,2.2,2.3,2.2,2.9
				c0,0.2-0.1,0.3-0.2,0.4c0.1,0.2-0.1,0.2-0.3,0.2c-0.3,0-0.6-0.3-1.1-0.9c-1.3-1.7-2.9-3.1-5-4.1s-4.2-1.5-6.5-1.5
				C51.3,22.5,50.8,22.6,50.3,22.7z"/>
		</g>
	</g>
	<g>
		<g>
			<rect x="7.9" y="22" class="st1" width="76.1" height="56"/>
		</g>
		<g class="st2">
			<path class="st3" d="M10.2,46.9c0.3,0,0.6,0.2,0.9,0.6c1.1,1.2,2.4,2.2,4,2.9s3.2,1.1,4.7,1.1c1.7,0,2.6-0.5,2.6-1.6
				c0-0.7-0.3-1.4-0.9-2.2s-2-2.5-4.3-4.9c-2.9-3.1-4.8-5.4-5.7-6.9c-1.3-2-1.9-3.9-1.9-5.6c0-2.7,1.2-4.9,3.6-6.6s5.3-2.5,8.7-2.5
				c2.4,0,4.6,0.5,6.7,1.5c0.8,0.4,1.4,0.8,2,1.3c0.5,0.5,0.8,0.9,0.8,1.3c0,0.2-0.1,0.3-0.2,0.5C31,25.9,30.9,26,30.7,26
				s-0.6-0.2-1.1-0.7c-0.8-0.7-1.8-1.4-3.1-1.9c-1.3-0.5-2.5-0.7-3.7-0.7c-0.7,0-1.3,0.2-1.8,0.5s-0.7,0.7-0.7,1.2
				c0,0.6,0.3,1.3,0.9,2.2s1.5,2,2.9,3.4c4.3,4.6,6.9,7.7,7.9,9.3c1,1.7,1.5,3.3,1.5,4.9c0,1.3-0.4,2.6-1.1,3.8
				c-0.7,1.2-1.7,2.2-3,2.9c-2.4,1.5-5.4,2.2-8.9,2.2c-3.2,0-6.1-0.8-8.5-2.5c-1.7-1.2-2.6-2.1-2.6-2.7c0-0.2,0.1-0.4,0.2-0.5
				C9.8,47,10,46.9,10.2,46.9z"/>
			<path class="st3" d="M50.2,22.6l-0.1,15.6l0.1,13.2c0.8,0.1,1.4,0.2,1.9,0.2c1.4,0,2.9-0.3,4.4-0.8s2.8-1.2,4-2.1
				c0.7-0.6,1.5-1.3,2.3-2.3s1.4-1.9,1.9-2.8c0.3-0.5,0.6-0.8,0.9-0.8c0.5,0,0.7,0.2,0.7,0.6c0,0.4-0.4,1.2-1.1,2.2s-1.5,2-2.4,2.8
				c-1.9,1.8-4.1,3.1-6.6,3.8c-1.5,0.4-3,0.6-4.4,0.6c-2.1,0-4.1-0.4-6.2-1.3c-3.3-1.4-5.8-3.6-7.6-6.6c-1.4-2.5-2.2-5.2-2.2-8
				c0-2.9,0.7-5.6,2.2-8.1c1.6-2.7,3.9-4.8,6.8-6.2c2.1-1,4.4-1.5,6.9-1.5c4.2,0,7.9,1.4,10.9,4.3c1.5,1.4,2.2,2.3,2.2,2.9
				c0,0.2-0.1,0.3-0.2,0.4s-0.3,0.2-0.5,0.2c-0.3,0-0.6-0.3-1.1-0.9c-1.3-1.7-2.9-3.1-5-4.1s-4.2-1.5-6.5-1.5
				C51.2,22.4,50.7,22.5,50.2,22.6z"/>
		</g>
	</g>
	<g>
		<g>
			<rect x="7.8" y="21.9" class="st1" width="76.1" height="56"/>
		</g>
		<g class="st2">
			<path class="st3" d="M10.1,46.8c0.3,0,0.6,0.2,0.9,0.6c1.1,1.2,2.4,2.2,4,2.9s3.2,1.1,4.7,1.1c1.7,0,2.6-0.5,2.6-1.6
				c0-0.7-0.3-1.4-0.9-2.2s-2-2.5-4.3-4.9c-2.9-3.1-4.8-5.4-5.7-6.9c-1.3-2-1.9-3.9-1.9-5.6c0-2.7,1.2-4.9,3.6-6.6s5.3-2.5,8.7-2.5
				c2.4,0,4.6,0.5,6.7,1.5c0.8,0.4,1.4,0.8,2,1.3c0.5,0.5,0.8,0.9,0.8,1.3c0,0.2-0.1,0.3-0.2,0.5c-0.2,0.1-0.3,0.2-0.5,0.2
				s-0.6-0.2-1.1-0.7c-0.8-0.7-1.8-1.4-3.1-1.9c-1.3-0.5-2.5-0.7-3.7-0.7c-0.7,0-1.3,0.2-1.8,0.5s-0.7,0.7-0.7,1.2
				c0,0.6,0.3,1.3,0.9,2.2s1.5,2,2.9,3.4c4.3,4.6,6.9,7.7,7.9,9.3c1,1.7,1.5,3.3,1.5,4.9c0,1.3-0.4,2.6-1.1,3.8
				c-0.7,1.2-1.7,2.2-3,2.9c-2.4,1.5-5.4,2.2-8.9,2.2c-3.2,0-6.1-0.8-8.5-2.5c-1.7-1.2-2.6-2.1-2.6-2.7c0-0.2,0.1-0.4,0.2-0.5
				C9.7,46.9,9.9,46.8,10.1,46.8z"/>
			<path class="st3" d="M50.1,22.5L50,38.1l0.1,13.2c0.8,0.1,1.4,0.2,1.9,0.2c1.4,0,2.9-0.3,4.4-0.8s2.8-1.2,4-2.1
				c0.7-0.6,1.5-1.3,2.3-2.3s1.4-1.9,1.9-2.8c0.3-0.5,0.6-0.8,0.9-0.8c0.5,0,0.7,0.2,0.7,0.6c0,0.4-0.4,1.2-1.1,2.2s-1.5,2-2.4,2.8
				c-1.9,1.8-4.1,3.1-6.6,3.8c-1.5,0.4-3,0.6-4.4,0.6c-2.1,0-4.1-0.4-6.2-1.3c-3.3-1.4-5.8-3.6-7.6-6.6c-1.4-2.5-2.2-5.2-2.2-8
				c0-2.9,0.7-5.6,2.2-8.1c1.6-2.7,3.9-4.8,6.8-6.2c2.1-1,4.4-1.5,6.9-1.5c4.2,0,7.9,1.4,10.9,4.3c1.5,1.4,2.2,2.3,2.2,2.9
				c0,0.2-0.1,0.3-0.2,0.4s-0.3,0.2-0.5,0.2c-0.3,0-0.6-0.3-1.1-0.9c-1.3-1.7-2.9-3.1-5-4.1s-4.2-1.5-6.5-1.5
				C51.1,22.3,50.6,22.4,50.1,22.5z"/>
		</g>
	</g>
	<g>
		<g>
			<rect x="7.7" y="21.8" class="st1" width="76.1" height="56"/>
		</g>
		<g class="st2">
			<path class="st3" d="M10,46.7c0.3,0,0.6,0.2,0.9,0.6c1.1,1.2,2.4,2.2,4,2.9s3.2,1.1,4.7,1.1c1.7,0,2.6-0.5,2.6-1.6
				c0-0.7-0.3-1.4-0.9-2.2s-2-2.5-4.3-4.9c-2.9-3.1-4.8-5.4-5.7-6.9c-1.3-2-1.9-3.9-1.9-5.6c0-2.7,1.2-4.9,3.6-6.6s5.3-2.5,8.7-2.5
				c2.4,0,4.6,0.5,6.7,1.5c0.8,0.4,1.4,0.8,2,1.3c0.5,0.5,0.8,0.9,0.8,1.3c0,0.2-0.1,0.3-0.2,0.5c-0.2,0.1-0.3,0.2-0.5,0.2
				s-0.6-0.2-1.1-0.7c-0.8-0.7-1.8-1.4-3.1-1.9c-1.3-0.5-2.5-0.7-3.7-0.7c-0.7,0-1.3,0.2-1.8,0.5s-0.7,0.7-0.7,1.2
				c0,0.6,0.3,1.3,0.9,2.2s1.5,2,2.9,3.4c4.3,4.6,6.9,7.7,7.9,9.3c1,1.7,1.5,3.3,1.5,4.9c0,1.3-0.4,2.6-1.1,3.8
				c-0.7,1.2-1.7,2.2-3,2.9c-2.4,1.5-5.4,2.2-8.9,2.2c-3.2,0-6.1-0.8-8.5-2.5c-1.7-1.2-2.6-2.1-2.6-2.7c0-0.2,0.1-0.4,0.2-0.5
				C9.6,46.8,9.8,46.7,10,46.7z"/>
			<path class="st3" d="M50,22.4L49.9,38L50,51.2c0.8,0.1,1.4,0.2,1.9,0.2c1.4,0,2.9-0.3,4.4-0.8s2.8-1.2,4-2.1
				c0.7-0.6,1.5-1.3,2.3-2.3s1.4-1.9,1.9-2.8c0.3-0.5,0.6-0.8,0.9-0.8c0.5,0,0.7,0.2,0.7,0.6c0,0.4-0.4,1.2-1.1,2.2s-1.5,2-2.4,2.8
				C60.7,50,58.5,51.3,56,52c-1.5,0.4-3,0.6-4.4,0.6c-2.1,0-4.1-0.4-6.2-1.3c-3.3-1.4-5.8-3.6-7.6-6.6c-1.4-2.5-2.2-5.2-2.2-8
				c0-2.9,0.7-5.6,2.2-8.1c1.6-2.7,3.9-4.8,6.8-6.2c2.1-1,4.4-1.5,6.9-1.5c4.2,0,7.9,1.4,10.9,4.3c1.5,1.4,2.2,2.3,2.2,2.9
				c0,0.2-0.1,0.3-0.2,0.4s-0.3,0.2-0.5,0.2c-0.3,0-0.6-0.3-1.1-0.9c-1.3-1.7-2.9-3.1-5-4.1s-4.2-1.5-6.5-1.5
				C51,22.2,50.5,22.3,50,22.4z"/>
		</g>
	</g>
	<g>
		<g>
			<rect x="7.6" y="21.7" class="st1" width="76.1" height="56"/>
		</g>
		<g class="st2">
			<path class="st3" d="M9.9,46.6c0.3,0,0.6,0.2,0.9,0.6c1.1,1.2,2.4,2.2,4,2.9s3.2,1.1,4.7,1.1c1.7,0,2.6-0.5,2.6-1.6
				c0-0.7-0.3-1.4-0.9-2.2s-2-2.5-4.3-4.9c-2.9-3.1-4.8-5.4-5.7-6.9c-1.3-2-1.9-3.9-1.9-5.6c0-2.7,1.2-4.9,3.6-6.6s5.3-2.5,8.7-2.5
				c2.4,0,4.6,0.5,6.7,1.5c0.8,0.4,1.4,0.8,2,1.3c0.5,0.5,0.8,0.9,0.8,1.3c0,0.2-0.1,0.3-0.2,0.5c-0.2,0.1-0.3,0.2-0.5,0.2
				s-0.6-0.2-1.1-0.7c-0.8-0.7-1.8-1.4-3.1-1.9c-1.3-0.5-2.5-0.7-3.7-0.7c-0.7,0-1.3,0.2-1.8,0.5c-0.5,0.1-0.7,0.5-0.7,1
				c0,0.6,0.3,1.3,0.9,2.2s1.5,2,2.9,3.4c4.3,4.6,6.9,7.7,7.9,9.3c1,1.7,1.5,3.3,1.5,4.9c0,1.3-0.4,2.6-1.1,3.8
				c-0.7,1.2-1.7,2.2-3,2.9c-2.4,1.5-5.4,2.2-8.9,2.2c-3.2,0-6.1-0.8-8.5-2.5C10,48.9,9.1,48,9.1,47.3c0-0.2,0.1-0.4,0.2-0.5
				C9.5,46.7,9.7,46.6,9.9,46.6z"/>
			<path class="st3" d="M49.9,22.3l-0.1,15.6l0.1,13.2c0.8,0.1,1.4,0.2,1.9,0.2c1.4,0,2.9-0.3,4.4-0.8s2.8-1.2,4-2.1
				c0.7-0.6,1.5-1.3,2.3-2.3s1.4-1.9,1.9-2.8c0.3-0.5,0.6-0.8,0.9-0.8c0.5,0,0.7,0.2,0.7,0.6c0,0.4-0.4,1.2-1.1,2.2s-1.5,2-2.4,2.8
				c-1.9,1.8-4.1,3.1-6.6,3.8c-1.5,0.4-3,0.6-4.4,0.6c-2.1,0-4.1-0.4-6.2-1.3c-3.3-1.4-5.8-3.6-7.6-6.6c-1.4-2.5-2.2-5.2-2.2-8
				c0-2.9,0.7-5.6,2.2-8.1c1.6-2.7,3.9-4.8,6.8-6.2c2.1-1,4.4-1.5,6.9-1.5c4.2,0,7.9,1.4,10.9,4.3c1.5,1.4,2.2,2.3,2.2,2.9
				c0,0.2-0.1,0.3-0.2,0.4s-0.3,0.2-0.5,0.2c-0.3,0-0.6-0.3-1.1-0.9c-1.3-1.7-2.9-3.1-5-4.1s-4.2-1.5-6.5-1.5
				C50.9,22.1,50.4,22.2,49.9,22.3z"/>
		</g>
	</g>
	<g>
		<g>
			<rect x="7.5" y="21.6" class="st1" width="76.1" height="56"/>
		</g>
		<g class="st2">
			<path class="st3" d="M9.8,46.5c0.3,0,0.6,0.2,0.9,0.6c1.1,1.2,2.4,2.2,4,2.9s3.2,1.1,4.7,1.1c1.7,0,2.6-0.5,2.6-1.6
				c0-0.7-0.3-1.4-0.9-2.2s-2-2.5-4.3-4.9c-2.9-3.1-4.8-5.4-5.7-6.9c-1.3-2-1.9-3.9-1.9-5.6c0-2.7,1.2-4.9,3.6-6.6s5.3-2.5,8.7-2.5
				c2.4,0,4.6,0.5,6.7,1.5c0.8,0.4,1.4,0.8,2,1.3c0.5,0.5,0.8,0.9,0.8,1.3c0,0.2-0.1,0.3-0.2,0.5c-0.2,0.1-0.3,0.2-0.5,0.2
				s-0.6-0.2-1.1-0.7c-0.8-0.7-1.8-1.4-3.1-1.9c-1.3-0.5-2.5-0.7-3.7-0.7c-0.7,0-1.3,0.2-1.8,0.5s-0.7,0.7-0.7,1.2
				c0,0.6,0.3,1.3,0.9,2.2s1.5,2,2.9,3.4c4.3,4.6,6.9,7.7,7.9,9.3c1,1.7,1.5,3.3,1.5,4.9c0,1.3-0.4,2.6-1.1,3.8
				c-0.7,1.2-1.7,2.2-3,2.9c-2.4,1.5-5.4,2.2-8.9,2.2c-3.2,0-6.1-0.8-8.5-2.5c-1.7-1.4-2.6-2.3-2.6-3c0-0.2,0.1-0.4,0.2-0.5
				C9.4,46.6,9.6,46.5,9.8,46.5z"/>
			<path class="st3" d="M49.8,22.2l-0.1,15.6L49.8,51c0.8,0.1,1.4,0.2,1.9,0.2c1.4,0,2.9-0.3,4.4-0.8s2.8-1.2,4-2.1
				c0.7-0.6,1.5-1.3,2.3-2.3s1.4-1.9,1.9-2.8c0.3-0.5,0.6-0.8,0.9-0.8c0.5,0,0.7,0.2,0.7,0.6c0,0.4-0.4,1.2-1.1,2.2s-1.5,2-2.4,2.8
				c-1.9,1.8-4.1,3.1-6.6,3.8c-1.5,0.4-3,0.6-4.4,0.6c-2.1,0-4.1-0.4-6.2-1.3c-3.3-1.4-5.8-3.6-7.6-6.6c-1.4-2.5-2.2-5.2-2.2-8
				c0-2.9,0.7-5.6,2.2-8.1c1.6-2.7,3.9-4.8,6.8-6.2c2.1-1,4.4-1.5,6.9-1.5c4.2,0,7.9,1.4,10.9,4.3c1.5,1.4,2.2,2.3,2.2,2.9
				c0,0.2-0.1,0.3-0.2,0.4s-0.3,0.2-0.5,0.2c-0.3,0-0.6-0.3-1.1-0.9c-1.3-1.7-2.9-3.1-5-4.1S53.4,22,51.1,22
				C50.8,22,50.3,22.1,49.8,22.2z"/>
		</g>
	</g>
	<g>
		<g>
			<rect x="7.4" y="21.5" class="st1" width="76.1" height="56"/>
		</g>
		<g class="st2">
			<path class="st3" d="M9.7,46.4c0.3,0,0.6,0.2,0.9,0.6c1.1,1.2,2.4,2.2,4,2.9s3.2,1.1,4.7,1.1c1.7,0,2.6-0.5,2.6-1.6
				c0-0.7-0.3-1.4-0.9-2.2s-2-2.5-4.3-4.9c-2.9-3.1-4.8-5.4-5.7-6.9c-1.3-2-1.9-3.9-1.9-5.6c0-2.7,1.2-4.9,3.6-6.6s5.3-2.5,8.7-2.5
				c2.4,0,4.6,0.5,6.7,1.5c0.8,0.4,1.4,0.8,2,1.3c0.5,0.5,0.8,0.9,0.8,1.3c0,0.2-0.1,0.3-0.2,0.5c-0.2,0.1-0.3,0.2-0.5,0.2
				s-0.6-0.2-1.1-0.7c-0.8-0.7-1.8-1.4-3.1-1.9c-1.3-0.5-2.5-0.7-3.7-0.7c-0.7,0-1.3,0.2-1.8,0.5s-0.7,0.7-0.7,1.2
				c0,0.6,0.3,1.3,0.9,2.2s1.5,2,2.9,3.4c4.3,4.6,6.9,7.7,7.9,9.3c1,1.7,1.5,3.3,1.5,4.9c0,1.3-0.4,2.6-1.1,3.8
				c-0.7,1.2-1.7,2.2-3,2.9c-2.4,1.5-5.4,2.2-8.9,2.2c-3.2,0-6.1-0.8-8.5-2.5c-1.7-1.2-2.6-2.1-2.6-2.7c0-0.2,0.1-0.4,0.2-0.5
				C9.3,46.5,9.5,46.4,9.7,46.4z"/>
			<path class="st3" d="M49.7,22.1l-0.1,15.6l0.1,13.2c0.8,0.1,1.4,0.2,1.9,0.2c1.4,0,2.9-0.3,4.4-0.8s2.8-1.2,4-2.1
				c0.7-0.6,1.5-1.3,2.3-2.3s1.4-1.9,1.9-2.8c0.3-0.5,0.6-0.8,0.9-0.8c0.5,0,0.7,0.2,0.7,0.6c0,0.4-0.4,1.2-1.1,2.2s-1.5,2-2.4,2.8
				c-1.9,1.8-4.1,3.1-6.6,3.8c-1.5,0.4-3,0.6-4.4,0.6c-2.1,0-4.1-0.4-6.2-1.3c-3.3-1.4-5.8-3.6-7.6-6.6c-1.4-2.5-2.2-5.2-2.2-8
				c0-2.9,0.7-5.6,2.2-8.1c1.6-2.7,3.9-4.8,6.8-6.2c2.1-1,4.4-1.5,6.9-1.5c4.2,0,7.9,1.4,10.9,4.3c1.5,1.4,2.2,2.3,2.2,2.9
				c0,0.2-0.1,0.3-0.2,0.4s-0.3,0.2-0.5,0.2c-0.3,0-0.6-0.3-1.1-0.9c-1.3-1.7-2.9-3.1-5-4.1s-4.2-1.5-6.5-1.5
				C50.7,21.9,50.2,22,49.7,22.1z"/>
		</g>
	</g>
	<g>
		<g>
			<rect x="7.3" y="21.4" class="st1" width="76.1" height="56"/>
		</g>
		<g class="st2">
			<path class="st3" d="M9.6,46.3c0.3,0,0.6,0.2,0.9,0.6c1.1,1.2,2.4,2.2,4,2.9s3.2,1.1,4.7,1.1c1.7,0,2.6-0.5,2.6-1.6
				c0-0.7-0.3-1.4-0.9-2.2s-2-2.5-4.3-4.9c-2.9-3.1-4.8-5.4-5.7-6.9c-1.3-2-1.9-3.9-1.9-5.6c0-2.7,1.2-4.9,3.6-6.6s5.3-2.5,8.7-2.5
				c2.4,0,4.6,0.5,6.7,1.5c0.8,0.4,1.4,0.8,2,1.3c0.5,0.5,0.8,0.9,0.8,1.3c0,0.2-0.1,0.3-0.2,0.5c-0.2,0.1-0.3,0.2-0.5,0.2
				s-0.6-0.2-1.1-0.7c-0.8-0.7-1.8-1.4-3.1-1.9c-1.3-0.5-2.5-0.7-3.7-0.7c-0.7,0-1.3,0.2-1.8,0.5s-0.7,0.7-0.7,1.2
				c0,0.6,0.3,1.3,0.9,2.2s1.5,2,2.9,3.4c4.3,4.6,6.9,7.7,7.9,9.3c1,1.7,1.5,3.3,1.5,4.9c0,1.3-0.4,2.6-1.1,3.8
				c-0.7,1.2-1.7,2.2-3,2.9c-2.4,1.5-5.4,2.2-8.9,2.2c-3.2,0-6.1-0.8-8.5-2.5c-1.7-1.2-2.6-2.1-2.6-2.7c0-0.2,0.1-0.4,0.2-0.5
				C9.2,46.4,9.4,46.3,9.6,46.3z"/>
			<path class="st3" d="M49.6,22l-0.1,15.6l0.1,13.2c0.8,0.1,1.4,0.2,1.9,0.2c1.4,0,2.9-0.3,4.4-0.8s2.8-1.2,4-2.1
				c0.7-0.6,1.5-1.3,2.3-2.3s1.4-1.9,1.9-2.8c0.3-0.5,0.6-0.8,0.9-0.8c0.5,0,0.7,0.2,0.7,0.6c0,0.4-0.4,1.2-1.1,2.2
				c-0.7,1-1.5,2-2.4,2.8c-1.9,1.8-4.1,3.1-6.6,3.8c-1.5,0.4-3,0.6-4.4,0.6c-2.1,0-4.1-0.4-6.2-1.3c-3.3-1.4-5.8-3.6-7.6-6.6
				c-1.4-2.5-2.2-5.2-2.2-8c0-2.9,0.7-5.6,2.2-8.1c1.6-2.7,3.9-4.8,6.8-6.2c2.1-1,4.4-1.5,6.9-1.5c4.2,0,7.9,1.4,10.9,4.3
				c1.5,1.4,2.2,2.3,2.2,2.9c0,0.2-0.1,0.3-0.2,0.4c-0.1,0.1-0.3,0.2-0.5,0.2c-0.3,0-0.6-0.3-1.1-0.9c-1.3-1.7-2.9-3.1-5-4.1
				s-4.2-1.5-6.5-1.5C50.6,21.8,50.1,21.9,49.6,22z"/>
		</g>
	</g>
	<g>
		<g>
			<rect x="7.2" y="21.3" class="st1" width="76.1" height="56"/>
		</g>
		<g class="st2">
			<path class="st3" d="M9.5,46.2c0.3,0,0.6,0.2,0.9,0.6c1.1,1.2,2.4,2.2,4,2.9s3.2,1.1,4.7,1.1c1.7,0,2.6-0.5,2.6-1.6
				c0-0.7-0.3-1.4-0.9-2.2s-2-2.5-4.3-4.9c-2.9-3.1-4.8-5.4-5.7-6.9c-1.3-2-1.9-3.9-1.9-5.6c0-2.7,1.2-4.9,3.6-6.6s5.3-2.5,8.7-2.5
				c2.4,0,4.6,0.5,6.7,1.5c0.8,0.4,1.4,0.8,2,1.3c0.5,0.5,0.8,0.9,0.8,1.3c0,0.2-0.1,0.3-0.2,0.5c-0.2,0.1-0.3,0.2-0.5,0.2
				s-0.6-0.2-1.1-0.7c-0.8-0.7-1.8-1.4-3.1-1.9c-1.3-0.5-2.5-0.7-3.7-0.7c-0.7,0-1.3,0.2-1.8,0.5s-0.7,0.7-0.7,1.2
				c0,0.6,0.3,1.3,0.9,2.2s1.5,2,2.9,3.4c4.3,4.6,6.9,7.7,7.9,9.3c1,1.7,1.5,3.3,1.5,4.9c0,1.3-0.4,2.6-1.1,3.8
				c-0.7,1.2-1.7,2.2-3,2.9c-2.4,1.5-5.4,2.2-8.9,2.2c-3.2,0-6.1-0.8-8.5-2.5c-1.7-1.2-2.6-2.1-2.6-2.7c0-0.2,0.1-0.4,0.2-0.5
				C9.1,46.3,9.3,46.2,9.5,46.2z"/>
			<path class="st3" d="M49.5,21.9l-0.1,15.6l0.1,13.2c0.8,0.1,1.4,0.2,1.9,0.2c1.4,0,2.9-0.3,4.4-0.8s2.8-1.2,4-2.1
				c0.7-0.6,1.5-1.3,2.3-2.3s1.4-1.9,1.9-2.8c0.3-0.5,0.6-0.8,0.9-0.8c0.5,0,0.7,0.2,0.7,0.6c0,0.4-0.4,1.2-1.1,2.2
				c-0.7,1-1.5,2-2.4,2.8c-1.9,1.8-4.1,3.1-6.6,3.8c-1.5,0.4-3,0.6-4.4,0.6c-2.1,0-4.1-0.4-6.2-1.3c-3.3-1.4-5.8-3.6-7.6-6.6
				c-1.4-2.5-2.2-5.2-2.2-8c0-2.9,0.7-5.6,2.2-8.1c1.6-2.7,3.9-4.8,6.8-6.2c2.1-1,4.4-1.5,6.9-1.5c4.2,0,7.9,1.4,10.9,4.3
				c1.5,1.4,2.2,2.3,2.2,2.9c0,0.2-0.1,0.3-0.2,0.4c-0.1,0.1-0.3,0.2-0.5,0.2c-0.3,0-0.6-0.3-1.1-0.9c-1.3-1.7-2.9-3.1-5-4.1
				s-4.2-1.5-6.5-1.5C50.5,21.7,50,21.8,49.5,21.9z"/>
		</g>
	</g>
	<g>
		<g>
			<rect x="7.1" y="21.2" class="st1" width="76.1" height="56"/>
		</g>
		<g class="st2">
			<path class="st3" d="M9.4,46.1c0.3,0,0.6,0.2,0.9,0.6c1.1,1.2,2.4,2.2,4,2.9s3.2,1.1,4.7,1.1c1.7,0,2.6-0.5,2.6-1.6
				c0-0.7-0.3-1.4-0.9-2.2s-2-2.5-4.3-4.9c-2.9-3.1-4.8-5.4-5.7-6.9c-1.3-2-1.9-3.9-1.9-5.6c0-2.7,1.2-4.9,3.6-6.6s5.3-2.5,8.7-2.5
				c2.4,0,4.6,0.5,6.7,1.5c0.8,0.4,1.4,0.8,2,1.3c0.5,0.5,0.8,0.9,0.8,1.3c0,0.2-0.1,0.3-0.2,0.5c-0.2-0.1-0.4,0-0.5,0
				c-0.2,0-0.6-0.2-1.1-0.7c-0.8-0.7-1.8-1.4-3.1-1.9c-1.3-0.5-2.5-0.7-3.7-0.7c-0.7,0-1.3,0.2-1.8,0.5s-0.7,0.7-0.7,1.2
				c0,0.6,0.3,1.3,0.9,2.2s1.5,2,2.9,3.4c4.3,4.6,6.9,7.7,7.9,9.3c1,1.7,1.5,3.3,1.5,4.9c0,1.3-0.4,2.6-1.1,3.8
				c-0.7,1.2-1.7,2.2-3,2.9c-2.4,1.5-5.4,2.2-8.9,2.2c-3.2,0-6.1-0.8-8.5-2.5c-1.7-1.2-2.6-2.1-2.6-2.7c0-0.2,0.1-0.4,0.2-0.5
				C9,46.2,9.2,46.1,9.4,46.1z"/>
			<path class="st3" d="M49.4,21.8l-0.1,15.6l0.1,13.2c0.8,0.1,1.4,0.2,1.9,0.2c1.4,0,2.9-0.3,4.4-0.8s2.8-1.2,4-2.1
				c0.7-0.6,1.5-1.3,2.3-2.3s1.4-1.9,1.9-2.8c0.3-0.5,0.6-0.8,0.9-0.8c0.5,0,0.7,0.2,0.7,0.6c0,0.4-0.4,1.2-1.1,2.2
				c-0.7,1-1.5,2-2.4,2.8c-1.9,1.8-4.1,3.1-6.6,3.8c-1.5,0.4-3,0.6-4.4,0.6c-2.1,0-4.1-0.4-6.2-1.3c-3.3-1.4-5.8-3.6-7.6-6.6
				c-1.4-2.5-2.2-5.2-2.2-8c0-2.9,0.7-5.6,2.2-8.1c1.6-2.7,3.9-4.8,6.8-6.2c2.1-1,4.4-1.5,6.9-1.5c4.2,0,7.9,1.4,10.9,4.3
				c1.5,1.4,2.2,2.3,2.2,2.9c0,0.2-0.1,0.3-0.2,0.4c-0.1,0.1-0.3,0.2-0.5,0.2c-0.3,0-0.6-0.3-1.1-0.9c-1.3-1.7-2.9-3.1-5-4.1
				s-4.2-1.5-6.5-1.5C50.4,21.6,49.9,21.7,49.4,21.8z"/>
		</g>
	</g>
	<g>
		<g>
			<rect x="7" y="21.1" class="st1" width="76.1" height="56"/>
		</g>
		<g class="st2">
			<path class="st3" d="M9.3,46c0.3,0,0.6,0.2,0.9,0.6c1.1,1.2,2.4,2.2,4,2.9s3.2,1.1,4.7,1.1c1.7,0,2.6-0.5,2.6-1.6
				c0-0.7-0.3-1.4-0.9-2.2s-2-2.5-4.3-4.9c-2.9-3.1-4.8-5.4-5.7-6.9c-1.3-2-1.9-3.9-1.9-5.6c0-2.7,1.2-4.9,3.6-6.6s5.3-2.5,8.7-2.5
				c2.4,0,4.6,0.5,6.7,1.5c0.8,0.4,1.4,0.8,2,1.3c0.5,0.5,0.8,0.9,0.8,1.3c0,0.2-0.1,0.3-0.2,0.5c-0.2,0.1-0.3,0.2-0.5,0.2
				s-0.6-0.2-1.1-0.7c-0.8-0.7-1.8-1.4-3.1-1.9c-1.3-0.5-2.5-0.7-3.7-0.7c-0.7,0-1.3,0.2-1.8,0.5s-0.7,0.7-0.7,1.2
				c0,0.6,0.3,1.3,0.9,2.2s1.5,2,2.9,3.4c4.3,4.6,6.9,7.7,7.9,9.3c1,1.7,1.5,3.3,1.5,4.9c0,1.3-0.4,2.6-1.1,3.8
				c-0.7,1.2-1.7,2.2-3,2.9c-2.4,1.5-5.4,2.2-8.9,2.2c-3.2,0-6.1-0.8-8.5-2.5c-1.7-1.2-2.6-2.1-2.6-2.7c0-0.2,0.1-0.4,0.2-0.5
				C8.9,46.1,9.1,46,9.3,46z"/>
			<path class="st3" d="M49.3,21.7l-0.1,15.6l0.1,13.2c0.8,0.1,1.4,0.2,1.9,0.2c1.4,0,2.9-0.3,4.4-0.8s2.8-1.2,4-2.1
				c0.7-0.6,1.5-1.3,2.3-2.3s1.4-1.9,1.9-2.8c0.3-0.5,0.6-0.8,0.9-0.8c0.5,0,0.7,0.2,0.7,0.6c0,0.4-0.4,1.2-1.1,2.2
				c-0.7,1-1.5,2-2.4,2.8c-1.9,1.8-4.1,3.1-6.6,3.8c-1.5,0.4-3,0.6-4.4,0.6c-2.1,0-4.1-0.4-6.2-1.3c-3.3-1.4-5.8-3.6-7.6-6.6
				c-1.4-2.5-2.2-5.2-2.2-8c0-2.9,0.7-5.6,2.2-8.1c1.6-2.7,3.9-4.8,6.8-6.2c2.1-1,4.4-1.5,6.9-1.5c4.2,0,7.9,1.4,10.9,4.3
				c1.5,1.4,2.2,2.3,2.2,2.9c0,0.2-0.1,0.3-0.2,0.4c0.1,0.2-0.1,0.2-0.3,0.2c-0.3,0-0.6-0.3-1.1-0.9c-1.3-1.7-2.9-3.1-5-4.1
				s-4.2-1.5-6.5-1.5C50.3,21.5,49.8,21.6,49.3,21.7z"/>
		</g>
	</g>
	<g>
		<g>
			<rect x="6.9" y="21" class="st1" width="76.1" height="56"/>
		</g>
		<g class="st2">
			<path class="st3" d="M9.2,45.9c0.3,0,0.6,0.2,0.9,0.6c1.1,1.2,2.4,2.2,4,2.9s3.2,1.1,4.7,1.1c1.7,0,2.6-0.5,2.6-1.6
				c0-0.7-0.3-1.4-0.9-2.2s-2-2.5-4.3-4.9c-2.9-3.1-4.8-5.4-5.7-6.9c-1.3-2-1.9-3.9-1.9-5.6c0-2.7,1.2-4.9,3.6-6.6s5.3-2.5,8.7-2.5
				c2.4,0,4.6,0.5,6.7,1.5c0.8,0.4,1.4,0.8,2,1.3c0.5,0.5,0.8,0.9,0.8,1.3c0,0.2-0.1,0.3-0.2,0.5C30,24.9,29.9,25,29.7,25
				s-0.6-0.2-1.1-0.7c-0.8-0.7-1.8-1.4-3.1-1.9c-1.3-0.5-2.5-0.7-3.7-0.7c-0.7,0-1.3,0.2-1.8,0.5s-0.7,0.7-0.7,1.2
				c0,0.6,0.3,1.3,0.9,2.2s1.5,2,2.9,3.4c4.3,4.6,6.9,7.7,7.9,9.3c1,1.7,1.5,3.3,1.5,4.9c0,1.3-0.4,2.6-1.1,3.8
				c-0.7,1.2-1.7,2.2-3,2.9c-2.4,1.5-5.4,2.2-8.9,2.2c-3.2,0-6.1-0.8-8.5-2.5c-1.7-1.2-2.6-2.1-2.6-2.7c0-0.2,0.1-0.4,0.2-0.5
				C8.8,46,9,45.9,9.2,45.9z"/>
			<path class="st3" d="M49.2,21.6l-0.1,15.6l0.1,13.2c0.8,0.1,1.4,0.2,1.9,0.2c1.4,0,2.9-0.3,4.4-0.8s2.8-1.2,4-2.1
				c0.7-0.6,1.5-1.3,2.3-2.3s1.4-1.9,1.9-2.8c0.3-0.5,0.6-0.8,0.9-0.8c0.5,0,0.7,0.2,0.7,0.6c0,0.4-0.4,1.2-1.1,2.2
				c-0.7,1-1.5,2-2.4,2.8c-1.9,1.8-4.1,3.1-6.6,3.8c-1.5,0.4-3,0.6-4.4,0.6c-2.1,0-4.1-0.4-6.2-1.3c-3.3-1.4-5.8-3.6-7.6-6.6
				c-1.4-2.5-2.2-5.2-2.2-8c0-2.9,0.7-5.6,2.2-8.1c1.6-2.7,3.9-4.8,6.8-6.2c2.1-1,4.4-1.5,6.9-1.5c4.2,0,7.9,1.4,10.9,4.3
				c1.5,1.4,2.2,2.3,2.2,2.9c0,0.2-0.1,0.3-0.2,0.4c-0.1,0.1-0.3,0.2-0.5,0.2c-0.3,0-0.6-0.3-1.1-0.9c-1.3-1.7-2.9-3.1-5-4.1
				s-4.2-1.5-6.5-1.5C50.2,21.4,49.7,21.5,49.2,21.6z"/>
		</g>
	</g>
	<g>
		<g>
			<rect x="6.8" y="20.9" class="st1" width="76.1" height="56"/>
		</g>
		<g class="st2">
			<path class="st3" d="M9.1,45.8c0.3,0,0.6,0.2,0.9,0.6c1.1,1.2,2.4,2.2,4,2.9s3.2,1.1,4.7,1.1c1.7,0,2.6-0.5,2.6-1.6
				c0-0.7-0.3-1.4-0.9-2.2s-2-2.5-4.3-4.9c-2.9-3.1-4.8-5.4-5.7-6.9c-1.3-2-1.9-3.9-1.9-5.6c0-2.7,1.2-4.9,3.6-6.6s5.3-2.5,8.7-2.5
				c2.4,0,4.6,0.5,6.7,1.5c0.8,0.4,1.4,0.8,2,1.3c0.5,0.5,0.8,0.9,0.8,1.3c0,0.2-0.1,0.3-0.2,0.5c-0.2,0.1-0.3,0.2-0.5,0.2
				s-0.6-0.2-1.1-0.7c-0.8-0.7-1.8-1.4-3.1-1.9c-1.3-0.5-2.5-0.7-3.7-0.7c-0.7,0-1.3,0.2-1.8,0.5s-0.7,0.7-0.7,1.2
				c0,0.6,0.3,1.3,0.9,2.2s1.5,2,2.9,3.4c4.3,4.6,6.9,7.7,7.9,9.3c1,1.7,1.5,3.3,1.5,4.9c0,1.3-0.4,2.6-1.1,3.8
				c-0.7,1.2-1.7,2.2-3,2.9c-2.4,1.5-5.4,2.2-8.9,2.2c-3.2,0-6.1-0.8-8.5-2.5c-1.7-1.2-2.6-2.1-2.6-2.7c0-0.2,0.1-0.4,0.2-0.5
				C8.7,45.9,8.9,45.8,9.1,45.8z"/>
			<path class="st3" d="M49.1,21.5L49,37.1l0.1,13.2c0.8,0.1,1.4,0.2,1.9,0.2c1.4,0,2.9-0.3,4.4-0.8s2.8-1.2,4-2.1
				c0.7-0.6,1.5-1.3,2.3-2.3s1.4-1.9,1.9-2.8c0.3-0.5,0.6-0.8,0.9-0.8c0.5,0,0.7,0.2,0.7,0.6c0,0.4-0.4,1.2-1.1,2.2
				c-0.7,1-1.5,2-2.4,2.8c-1.9,1.8-4.1,3.1-6.6,3.8c-1.5,0.4-3,0.6-4.4,0.6c-2.1,0-4.1-0.4-6.2-1.3c-3.3-1.4-5.8-3.6-7.6-6.6
				c-1.4-2.5-2.2-5.2-2.2-8c0-2.9,0.7-5.6,2.2-8.1c1.6-2.7,3.9-4.8,6.8-6.2c2.1-1,4.4-1.5,6.9-1.5c4.2,0,7.9,1.4,10.9,4.3
				c1.5,1.4,2.2,2.3,2.2,2.9c0,0.2-0.1,0.3-0.2,0.4c-0.1,0.1-0.3,0.2-0.5,0.2c-0.3,0-0.6-0.3-1.1-0.9c-1.3-1.7-2.9-3.1-5-4.1
				s-4.2-1.5-6.5-1.5C50.1,21.3,49.6,21.4,49.1,21.5z"/>
		</g>
	</g>
	<g>
		<g>
			<rect x="6.7" y="20.8" class="st1" width="76.1" height="56"/>
		</g>
		<g class="st2">
			<path class="st3" d="M9,45.7c0.3,0,0.6,0.2,0.9,0.6c1.1,1.2,2.4,2.2,4,2.9s3.2,1.1,4.7,1.1c1.7,0,2.6-0.5,2.6-1.6
				c0-0.7-0.3-1.4-0.9-2.2s-2-2.5-4.3-4.9c-2.9-3.1-4.8-5.4-5.7-6.9c-1.3-2-1.9-3.9-1.9-5.6c0-2.7,1.2-4.9,3.6-6.6s5.3-2.5,8.7-2.5
				c2.4,0,4.6,0.5,6.7,1.5c0.8,0.4,1.4,0.8,2,1.3c0.5,0.5,0.8,0.9,0.8,1.3c0,0.2-0.1,0.3-0.2,0.5c-0.2,0.1-0.3,0.2-0.5,0.2
				s-0.6-0.2-1.1-0.7c-0.8-0.7-1.8-1.4-3.1-1.9c-1.3-0.5-2.5-0.7-3.7-0.7c-0.7,0-1.3,0.2-1.8,0.5s-0.7,0.7-0.7,1.2
				c0,0.6,0.3,1.3,0.9,2.2s1.5,2,2.9,3.4c4.3,4.6,6.9,7.7,7.9,9.3c1,1.7,1.5,3.3,1.5,4.9c0,1.3-0.4,2.6-1.1,3.8s-1.7,2.2-3,2.9
				c-2.4,1.5-5.4,2.2-8.9,2.2c-3.2,0-6.1-0.8-8.5-2.5c-1.7-1.2-2.6-2.1-2.6-2.7c0-0.2,0.1-0.4,0.2-0.5C8.6,45.8,8.8,45.7,9,45.7z"/>
			<path class="st3" d="M49,21.4L48.9,37L49,50.2c0.8,0.1,1.4,0.2,1.9,0.2c1.4,0,2.9-0.3,4.4-0.8s2.8-1.2,4-2.1
				c0.7-0.6,1.5-1.3,2.3-2.3s1.4-1.9,1.9-2.8c0.3-0.5,0.6-0.8,0.9-0.8c0.5,0,0.7,0.2,0.7,0.6c0,0.4-0.4,1.2-1.1,2.2
				c-0.7,1-1.5,2-2.4,2.8C59.7,49,57.5,50.3,55,51c-1.5,0.4-3,0.6-4.4,0.6c-2.1,0-4.1-0.4-6.2-1.3c-3.3-1.4-5.8-3.6-7.6-6.6
				c-1.4-2.5-2.2-5.2-2.2-8c0-2.9,0.7-5.6,2.2-8.1c1.6-2.7,3.9-4.8,6.8-6.2c2.1-1,4.4-1.5,6.9-1.5c4.2,0,7.9,1.4,10.9,4.3
				c1.5,1.4,2.2,2.3,2.2,2.9c0,0.2-0.1,0.3-0.2,0.4c-0.1,0.1-0.3,0.2-0.5,0.2c-0.3,0-0.6-0.3-1.1-0.9c-1.3-1.7-2.9-3.1-5-4.1
				s-4.2-1.5-6.5-1.5C50,21.2,49.5,21.3,49,21.4z"/>
		</g>
	</g>
	<g>
		<g>
			<rect x="6.6" y="20.7" class="st1" width="76.1" height="56"/>
		</g>
		<g class="st2">
			<path class="st3" d="M8.9,45.6c0.3,0,0.6,0.2,0.9,0.6c1.1,1.2,2.4,2.2,4,2.9s3.2,1.1,4.7,1.1c1.7,0,2.6-0.5,2.6-1.6
				c0-0.7-0.3-1.4-0.9-2.2s-2-2.5-4.3-4.9c-2.9-3.1-4.8-5.4-5.7-6.9c-1.3-2-1.9-3.9-1.9-5.6c0-2.7,1.2-4.9,3.6-6.6s5.3-2.5,8.7-2.5
				c2.4,0,4.6,0.5,6.7,1.5c0.8,0.4,1.4,0.8,2,1.3c0.5,0.5,0.8,0.9,0.8,1.3c0,0.2-0.1,0.3-0.2,0.5c-0.2,0.1-0.3,0.2-0.5,0.2
				s-0.6-0.2-1.1-0.7c-0.8-0.7-1.8-1.4-3.1-1.9c-1.3-0.5-2.5-0.7-3.7-0.7c-0.7,0-1.3,0.2-1.8,0.5c-0.5,0.1-0.7,0.5-0.7,1
				c0,0.6,0.3,1.3,0.9,2.2s1.5,2,2.9,3.4c4.3,4.6,6.9,7.7,7.9,9.3c1,1.7,1.5,3.3,1.5,4.9c0,1.3-0.4,2.6-1.1,3.8s-1.7,2.2-3,2.9
				c-2.4,1.5-5.4,2.2-8.9,2.2c-3.2,0-6.1-0.8-8.5-2.5C9,47.9,8.1,47,8.1,46.3c0-0.2,0.1-0.4,0.2-0.5C8.5,45.7,8.7,45.6,8.9,45.6z"/>
			<path class="st3" d="M48.9,21.3l-0.1,15.6l0.1,13.2c0.8,0.1,1.4,0.2,1.9,0.2c1.4,0,2.9-0.3,4.4-0.8s2.8-1.2,4-2.1
				c0.7-0.6,1.5-1.3,2.3-2.3s1.4-1.9,1.9-2.8c0.3-0.5,0.6-0.8,0.9-0.8c0.5,0,0.7,0.2,0.7,0.6c0,0.4-0.4,1.2-1.1,2.2
				c-0.7,1-1.5,2-2.4,2.8c-1.9,1.8-4.1,3.1-6.6,3.8c-1.5,0.4-3,0.6-4.4,0.6c-2.1,0-4.1-0.4-6.2-1.3c-3.3-1.4-5.8-3.6-7.6-6.6
				c-1.4-2.5-2.2-5.2-2.2-8c0-2.9,0.7-5.6,2.2-8.1c1.6-2.7,3.9-4.8,6.8-6.2c2.1-1,4.4-1.5,6.9-1.5c4.2,0,7.9,1.4,10.9,4.3
				c1.5,1.4,2.2,2.3,2.2,2.9c0,0.2-0.1,0.3-0.2,0.4c-0.1,0.1-0.3,0.2-0.5,0.2c-0.3,0-0.6-0.3-1.1-0.9c-1.3-1.7-2.9-3.1-5-4.1
				s-4.2-1.5-6.5-1.5C49.9,21.1,49.4,21.2,48.9,21.3z"/>
		</g>
	</g>
	<g>
		<g>
			<rect x="6.5" y="20.6" class="st1" width="76.1" height="56"/>
		</g>
		<g class="st2">
			<path class="st3" d="M8.8,45.5c0.3,0,0.6,0.2,0.9,0.6c1.1,1.2,2.4,2.2,4,2.9s3.2,1.1,4.7,1.1c1.7,0,2.6-0.5,2.6-1.6
				c0-0.7-0.3-1.4-0.9-2.2s-2-2.5-4.3-4.9c-2.9-3.1-4.8-5.4-5.7-6.9c-1.3-2-1.9-3.9-1.9-5.6c0-2.7,1.2-4.9,3.6-6.6s5.3-2.5,8.7-2.5
				c2.4,0,4.6,0.5,6.7,1.5c0.8,0.4,1.4,0.8,2,1.3c0.5,0.5,0.8,0.9,0.8,1.3c0,0.2-0.1,0.3-0.2,0.5c-0.2,0.1-0.3,0.2-0.5,0.2
				s-0.6-0.2-1.1-0.7c-0.8-0.7-1.8-1.4-3.1-1.9c-1.3-0.5-2.5-0.7-3.7-0.7c-0.7,0-1.3,0.2-1.8,0.5s-0.7,0.7-0.7,1.2
				c0,0.6,0.3,1.3,0.9,2.2s1.5,2,2.9,3.4c4.3,4.6,6.9,7.7,7.9,9.3c1,1.7,1.5,3.3,1.5,4.9c0,1.3-0.4,2.6-1.1,3.8s-1.7,2.2-3,2.9
				c-2.4,1.5-5.4,2.2-8.9,2.2c-3.2,0-6.1-0.8-8.5-2.5c-1.7-1.4-2.6-2.3-2.6-3c0-0.2,0.1-0.4,0.2-0.5C8.4,45.6,8.6,45.5,8.8,45.5z"/>
			<path class="st3" d="M48.8,21.2l-0.1,15.6L48.8,50c0.8,0.1,1.4,0.2,1.9,0.2c1.4,0,2.9-0.3,4.4-0.8s2.8-1.2,4-2.1
				c0.7-0.6,1.5-1.3,2.3-2.3s1.4-1.9,1.9-2.8c0.3-0.5,0.6-0.8,0.9-0.8c0.5,0,0.7,0.2,0.7,0.6c0,0.4-0.4,1.2-1.1,2.2
				c-0.7,1-1.5,2-2.4,2.8c-1.9,1.8-4.1,3.1-6.6,3.8c-1.5,0.4-3,0.6-4.4,0.6c-2.1,0-4.1-0.4-6.2-1.3c-3.3-1.4-5.8-3.6-7.6-6.6
				c-1.4-2.5-2.2-5.2-2.2-8c0-2.9,0.7-5.6,2.2-8.1c1.6-2.7,3.9-4.8,6.8-6.2c2.1-1,4.4-1.5,6.9-1.5c4.2,0,7.9,1.4,10.9,4.3
				c1.5,1.4,2.2,2.3,2.2,2.9c0,0.2-0.1,0.3-0.2,0.4c-0.1,0.1-0.3,0.2-0.5,0.2c-0.3,0-0.6-0.3-1.1-0.9c-1.3-1.7-2.9-3.1-5-4.1
				S52.4,21,50.1,21C49.8,21,49.3,21.1,48.8,21.2z"/>
		</g>
	</g>
	<g>
		<g>
			<rect x="6.4" y="20.5" class="st1" width="76.1" height="56"/>
		</g>
		<g class="st2">
			<path class="st3" d="M8.7,45.4c0.3,0,0.6,0.2,0.9,0.6c1.1,1.2,2.4,2.2,4,2.9s3.2,1.1,4.7,1.1c1.7,0,2.6-0.5,2.6-1.6
				c0-0.7-0.3-1.4-0.9-2.2s-2-2.5-4.3-4.9c-2.9-3.1-4.8-5.4-5.7-6.9c-1.3-2-1.9-3.9-1.9-5.6c0-2.7,1.2-4.9,3.6-6.6s5.3-2.5,8.7-2.5
				c2.4,0,4.6,0.5,6.7,1.5c0.8,0.4,1.4,0.8,2,1.3c0.5,0.5,0.8,0.9,0.8,1.3c0,0.2-0.1,0.3-0.2,0.5c-0.2,0.1-0.3,0.2-0.5,0.2
				s-0.6-0.2-1.1-0.7c-0.8-0.7-1.8-1.4-3.1-1.9c-1.3-0.5-2.5-0.7-3.7-0.7c-0.7,0-1.3,0.2-1.8,0.5s-0.7,0.7-0.7,1.2
				c0,0.6,0.3,1.3,0.9,2.2s1.5,2,2.9,3.4c4.3,4.6,6.9,7.7,7.9,9.3c1,1.7,1.5,3.3,1.5,4.9c0,1.3-0.4,2.6-1.1,3.8s-1.7,2.2-3,2.9
				c-2.4,1.5-5.4,2.2-8.9,2.2c-3.2,0-6.1-0.8-8.5-2.5c-1.7-1.2-2.6-2.1-2.6-2.7c0-0.2,0.1-0.4,0.2-0.5C8.3,45.5,8.5,45.4,8.7,45.4z"
				/>
			<path class="st3" d="M48.7,21.1l-0.1,15.6l0.1,13.2c0.8,0.1,1.4,0.2,1.9,0.2c1.4,0,2.9-0.3,4.4-0.8s2.8-1.2,4-2.1
				c0.7-0.6,1.5-1.3,2.3-2.3s1.4-1.9,1.9-2.8c0.3-0.5,0.6-0.8,0.9-0.8c0.5,0,0.7,0.2,0.7,0.6c0,0.4-0.4,1.2-1.1,2.2
				c-0.7,1-1.5,2-2.4,2.8c-1.9,1.8-4.1,3.1-6.6,3.8c-1.5,0.4-3,0.6-4.4,0.6c-2.1,0-4.1-0.4-6.2-1.3c-3.3-1.4-5.8-3.6-7.6-6.6
				c-1.4-2.5-2.2-5.2-2.2-8c0-2.9,0.7-5.6,2.2-8.1c1.6-2.7,3.9-4.8,6.8-6.2c2.1-1,4.4-1.5,6.9-1.5c4.2,0,7.9,1.4,10.9,4.3
				c1.5,1.4,2.2,2.3,2.2,2.9c0,0.2-0.1,0.3-0.2,0.4c-0.1,0.1-0.3,0.2-0.5,0.2c-0.3,0-0.6-0.3-1.1-0.9c-1.3-1.7-2.9-3.1-5-4.1
				s-4.2-1.5-6.5-1.5C49.7,20.9,49.2,21,48.7,21.1z"/>
		</g>
	</g>
	<g>
		<g>
			<rect x="6.3" y="20.4" class="st1" width="76.1" height="56"/>
		</g>
		<g class="st2">
			<path class="st3" d="M8.6,45.3c0.3,0,0.6,0.2,0.9,0.6c1.1,1.2,2.4,2.2,4,2.9s3.2,1.1,4.7,1.1c1.7,0,2.6-0.5,2.6-1.6
				c0-0.7-0.3-1.4-0.9-2.2s-2-2.5-4.3-4.9c-2.9-3.1-4.8-5.4-5.7-6.9c-1.3-2-1.9-3.9-1.9-5.6c0-2.7,1.2-4.9,3.6-6.6s5.3-2.5,8.7-2.5
				c2.4,0,4.6,0.5,6.7,1.5c0.8,0.4,1.4,0.8,2,1.3c0.5,0.5,0.8,0.9,0.8,1.3c0,0.2-0.1,0.3-0.2,0.5c-0.2,0.1-0.3,0.2-0.5,0.2
				s-0.6-0.2-1.1-0.7c-0.8-0.7-1.8-1.4-3.1-1.9c-1.3-0.5-2.5-0.7-3.7-0.7c-0.7,0-1.3,0.2-1.8,0.5s-0.7,0.7-0.7,1.2
				c0,0.6,0.3,1.3,0.9,2.2s1.5,2,2.9,3.4c4.3,4.6,6.9,7.7,7.9,9.3c1,1.7,1.5,3.3,1.5,4.9c0,1.3-0.4,2.6-1.1,3.8s-1.7,2.2-3,2.9
				c-2.4,1.5-5.4,2.2-8.9,2.2c-3.2,0-6.1-0.8-8.5-2.5c-1.7-1.2-2.6-2.1-2.6-2.7c0-0.2,0.1-0.4,0.2-0.5C8.2,45.4,8.4,45.3,8.6,45.3z"
				/>
			<path class="st3" d="M48.6,21l-0.1,15.6l0.1,13.2c0.8,0.1,1.4,0.2,1.9,0.2c1.4,0,2.9-0.3,4.4-0.8s2.8-1.2,4-2.1
				c0.7-0.6,1.5-1.3,2.3-2.3s1.4-1.9,1.9-2.8c0.3-0.5,0.6-0.8,0.9-0.8c0.5,0,0.7,0.2,0.7,0.6c0,0.4-0.4,1.2-1.1,2.2
				c-0.7,1-1.5,2-2.4,2.8c-1.9,1.8-4.1,3.1-6.6,3.8c-1.5,0.4-3,0.6-4.4,0.6c-2.1,0-4.1-0.4-6.2-1.3c-3.3-1.4-5.8-3.6-7.6-6.6
				c-1.4-2.5-2.2-5.2-2.2-8c0-2.9,0.7-5.6,2.2-8.1c1.6-2.7,3.9-4.8,6.8-6.2c2.1-1,4.4-1.5,6.9-1.5c4.2,0,7.9,1.4,10.9,4.3
				c1.5,1.4,2.2,2.3,2.2,2.9c0,0.2-0.1,0.3-0.2,0.4c-0.1,0.1-0.3,0.2-0.5,0.2c-0.3,0-0.6-0.3-1.1-0.9c-1.3-1.7-2.9-3.1-5-4.1
				s-4.2-1.5-6.5-1.5C49.6,20.8,49.1,20.9,48.6,21z"/>
		</g>
	</g>
	<g>
		<g>
			<rect x="6.2" y="20.3" class="st1" width="76.1" height="56"/>
		</g>
		<g class="st2">
			<path class="st3" d="M8.5,45.2c0.3,0,0.6,0.2,0.9,0.6c1.1,1.2,2.4,2.2,4,2.9s3.2,1.1,4.7,1.1c1.7,0,2.6-0.5,2.6-1.6
				c0-0.7-0.3-1.4-0.9-2.2s-2-2.5-4.3-4.9c-2.9-3.1-4.8-5.4-5.7-6.9c-1.3-2-1.9-3.9-1.9-5.6c0-2.7,1.2-4.9,3.6-6.6s5.3-2.5,8.7-2.5
				c2.4,0,4.6,0.5,6.7,1.5c0.8,0.4,1.4,0.8,2,1.3c0.5,0.5,0.8,0.9,0.8,1.3c0,0.2-0.1,0.3-0.2,0.5c-0.2,0.1-0.3,0.2-0.5,0.2
				s-0.6-0.2-1.1-0.7c-0.8-0.7-1.8-1.4-3.1-1.9c-1.3-0.5-2.5-0.7-3.7-0.7c-0.7,0-1.3,0.2-1.8,0.5s-0.7,0.7-0.7,1.2
				c0,0.6,0.3,1.3,0.9,2.2s1.5,2,2.9,3.4c4.3,4.6,6.9,7.7,7.9,9.3c1,1.7,1.5,3.3,1.5,4.9c0,1.3-0.4,2.6-1.1,3.8s-1.7,2.2-3,2.9
				c-2.4,1.5-5.4,2.2-8.9,2.2c-3.2,0-6.1-0.8-8.5-2.5c-1.7-1.2-2.6-2.1-2.6-2.7c0-0.2,0.1-0.4,0.2-0.5C8.1,45.3,8.3,45.2,8.5,45.2z"
				/>
			<path class="st3" d="M48.5,20.9l-0.1,15.6l0.1,13.2c0.8,0.1,1.4,0.2,1.9,0.2c1.4,0,2.9-0.3,4.4-0.8s2.8-1.2,4-2.1
				c0.7-0.6,1.5-1.3,2.3-2.3s1.4-1.9,1.9-2.8c0.3-0.5,0.6-0.8,0.9-0.8c0.5,0,0.7,0.2,0.7,0.6c0,0.4-0.4,1.2-1.1,2.2
				c-0.7,1-1.5,2-2.4,2.8c-1.9,1.8-4.1,3.1-6.6,3.8c-1.5,0.4-3,0.6-4.4,0.6c-2.1,0-4.1-0.4-6.2-1.3c-3.3-1.4-5.8-3.6-7.6-6.6
				c-1.4-2.5-2.2-5.2-2.2-8c0-2.9,0.7-5.6,2.2-8.1c1.6-2.7,3.9-4.8,6.8-6.2c2.1-1,4.4-1.5,6.9-1.5c4.2,0,7.9,1.4,10.9,4.3
				c1.5,1.4,2.2,2.3,2.2,2.9c0,0.2-0.1,0.3-0.2,0.4c-0.1,0.1-0.3,0.2-0.5,0.2c-0.3,0-0.6-0.3-1.1-0.9c-1.3-1.7-2.9-3.1-5-4.1
				s-4.2-1.5-6.5-1.5C49.5,20.7,49,20.8,48.5,20.9z"/>
		</g>
	</g>
</g>
<g>
	<rect x="6.2" y="18.8" class="st1" width="76.1" height="56"/>
</g>
<g class="st2">
	<path class="st4" d="M8.5,45.2c0.3,0,0.6,0.2,0.9,0.6c1.1,1.2,2.4,2.2,4,2.9s3.2,1.1,4.7,1.1c1.7,0,2.6-0.5,2.6-1.6
		c0-0.7-0.3-1.4-0.9-2.2s-2-2.5-4.3-4.9c-2.9-3.1-4.8-5.4-5.7-6.9c-1.3-2-1.9-3.9-1.9-5.6c0-2.7,1.2-4.9,3.6-6.6s5.3-2.5,8.7-2.5
		c2.4,0,4.6,0.5,6.7,1.5c0.8,0.4,1.4,0.8,2,1.3c0.5,0.5,0.8,0.9,0.8,1.3c0,0.2-0.1,0.3-0.2,0.5c-0.2,0.1-0.3,0.2-0.5,0.2
		s-0.6-0.2-1.1-0.7c-0.8-0.7-1.8-1.4-3.1-1.9c-1.3-0.5-2.5-0.7-3.7-0.7c-0.7,0-1.3,0.2-1.8,0.5s-0.7,0.7-0.7,1.2
		c0,0.6,0.3,1.3,0.9,2.2s1.5,2,2.9,3.4c4.3,4.6,6.9,7.7,7.9,9.3c1,1.7,1.5,3.3,1.5,4.9c0,1.3-0.4,2.6-1.1,3.8s-1.7,2.2-3,2.9
		c-2.4,1.5-5.4,2.2-8.9,2.2c-3.2,0-6.1-0.8-8.5-2.5c-1.7-1.2-2.6-2.1-2.6-2.7c0-0.2,0.1-0.4,0.2-0.5C8.1,45.3,8.3,45.2,8.5,45.2z"/>
	<path class="st4" d="M48.5,20.9l-0.1,15.6l0.1,13.2c0.8,0.1,1.4,0.2,1.9,0.2c1.4,0,2.9-0.3,4.4-0.8s2.8-1.2,4-2.1
		c0.7-0.6,1.5-1.3,2.3-2.3s1.4-1.9,1.9-2.8c0.3-0.5,0.6-0.8,0.9-0.8c0.5,0,0.7,0.2,0.7,0.6c0,0.4-0.4,1.2-1.1,2.2
		c-0.7,1-1.5,2-2.4,2.8c-1.9,1.8-4.1,3.1-6.6,3.8c-1.5,0.4-3,0.6-4.4,0.6c-2.1,0-4.1-0.4-6.2-1.3c-3.3-1.4-5.8-3.6-7.6-6.6
		c-1.4-2.5-2.2-5.2-2.2-8c0-2.9,0.7-5.6,2.2-8.1c1.6-2.7,3.9-4.8,6.8-6.2c2.1-1,4.4-1.5,6.9-1.5c4.2,0,7.9,1.4,10.9,4.3
		c1.5,1.4,2.2,2.3,2.2,2.9c0,0.2-0.1,0.3-0.2,0.4c-0.1,0.1-0.3,0.2-0.5,0.2c-0.3,0-0.6-0.3-1.1-0.9c-1.3-1.7-2.9-3.1-5-4.1
		s-4.2-1.5-6.5-1.5C49.5,20.7,49,20.8,48.5,20.9z"/>
</g>
<g class="st2">
	<path class="st1" d="M8.5,45.2c0.3,0,0.6,0.2,0.9,0.6c1.1,1.2,2.4,2.2,4,2.9s3.2,1.1,4.7,1.1c1.7,0,2.6-0.5,2.6-1.6
		c0-0.7-0.3-1.4-0.9-2.2s-2-2.5-4.3-4.9c-2.9-3.1-4.8-5.4-5.7-6.9c-1.3-2-1.9-3.9-1.9-5.6c0-2.7,1.2-4.9,3.6-6.6s5.3-2.5,8.7-2.5
		c2.4,0,4.6,0.5,6.7,1.5c0.8,0.4,1.4,0.8,2,1.3c0.5,0.5,0.8,0.9,0.8,1.3c0,0.2-0.1,0.3-0.2,0.5c-0.2,0.1-0.3,0.2-0.5,0.2
		s-0.6-0.2-1.1-0.7c-0.8-0.7-1.8-1.4-3.1-1.9c-1.3-0.5-2.5-0.7-3.7-0.7c-0.7,0-1.3,0.2-1.8,0.5s-0.7,0.7-0.7,1.2
		c0,0.6,0.3,1.3,0.9,2.2s1.5,2,2.9,3.4c4.3,4.6,6.9,7.7,7.9,9.3c1,1.7,1.5,3.3,1.5,4.9c0,1.3-0.4,2.6-1.1,3.8s-1.7,2.2-3,2.9
		c-2.4,1.5-5.4,2.2-8.9,2.2c-3.2,0-6.1-0.8-8.5-2.5c-1.7-1.2-2.6-2.1-2.6-2.7c0-0.2,0.1-0.4,0.2-0.5C8.1,45.3,8.3,45.2,8.5,45.2z"/>
	<path class="st1" d="M48.5,20.9l-0.1,15.6l0.1,13.2c0.8,0.1,1.4,0.2,1.9,0.2c1.4,0,2.9-0.3,4.4-0.8s2.8-1.2,4-2.1
		c0.7-0.6,1.5-1.3,2.3-2.3s1.4-1.9,1.9-2.8c0.3-0.5,0.6-0.8,0.9-0.8c0.5,0,0.7,0.2,0.7,0.6c0,0.4-0.4,1.2-1.1,2.2
		c-0.7,1-1.5,2-2.4,2.8c-1.9,1.8-4.1,3.1-6.6,3.8c-1.5,0.4-3,0.6-4.4,0.6c-2.1,0-4.1-0.4-6.2-1.3c-3.3-1.4-5.8-3.6-7.6-6.6
		c-1.4-2.5-2.2-5.2-2.2-8c0-2.9,0.7-5.6,2.2-8.1c1.6-2.7,3.9-4.8,6.8-6.2c2.1-1,4.4-1.5,6.9-1.5c4.2,0,7.9,1.4,10.9,4.3
		c1.5,1.4,2.2,2.3,2.2,2.9c0,0.2-0.1,0.3-0.2,0.4c-0.1,0.1-0.3,0.2-0.5,0.2c-0.3,0-0.6-0.3-1.1-0.9c-1.3-1.7-2.9-3.1-5-4.1
		s-4.2-1.5-6.5-1.5C49.5,20.7,49,20.8,48.5,20.9z"/>
</g>
</svg>
